<mxfile host="app.diagrams.net" modified="2023-09-22T15:22:40.884Z" agent="Mozilla/5.0 (X11; Linux x86_64) AppleWebKit/537.36 (KHTML, like Gecko) Chrome/116.0.0.0 Safari/537.36" etag="qL8PZks2RLPCZ1VMmYSk" version="21.5.0" type="github">
  <diagram name="Page-1" id="GT_rrnpo4SETGuKXp9Ko">
    <mxGraphModel dx="1469" dy="996" grid="1" gridSize="10" guides="1" tooltips="1" connect="1" arrows="0" fold="1" page="1" pageScale="1" pageWidth="1169" pageHeight="827" math="0" shadow="0">
      <root>
        <mxCell id="0" />
        <mxCell id="1" parent="0" />
        <mxCell id="Xls55mhfJ68oFdA4jhoc-5" value="Sense" style="edgeStyle=orthogonalEdgeStyle;rounded=0;orthogonalLoop=1;jettySize=auto;html=1;exitX=0.5;exitY=0;exitDx=0;exitDy=0;startArrow=classic;startFill=1;endArrow=none;endFill=0;entryX=0.5;entryY=1;entryDx=0;entryDy=0;" edge="1" parent="1" source="Nn-9Tk5UoL4WB16sedau-3" target="Xls55mhfJ68oFdA4jhoc-19">
          <mxGeometry relative="1" as="geometry">
            <mxPoint x="560" y="360" as="targetPoint" />
          </mxGeometry>
        </mxCell>
        <mxCell id="Xls55mhfJ68oFdA4jhoc-3" style="edgeStyle=orthogonalEdgeStyle;rounded=0;orthogonalLoop=1;jettySize=auto;html=1;exitX=0;exitY=0.5;exitDx=0;exitDy=0;endArrow=oval;endFill=1;strokeWidth=3;fillColor=#e1d5e7;strokeColor=#9673a6;startArrow=classic;startFill=1;" edge="1" parent="1" source="Nn-9Tk5UoL4WB16sedau-8">
          <mxGeometry relative="1" as="geometry">
            <mxPoint x="40" y="360" as="targetPoint" />
          </mxGeometry>
        </mxCell>
        <mxCell id="Xls55mhfJ68oFdA4jhoc-4" value="VBAT" style="edgeLabel;html=1;align=center;verticalAlign=middle;resizable=0;points=[];" vertex="1" connectable="0" parent="Xls55mhfJ68oFdA4jhoc-3">
          <mxGeometry x="0.8245" y="-4" relative="1" as="geometry">
            <mxPoint x="-35" y="4" as="offset" />
          </mxGeometry>
        </mxCell>
        <mxCell id="Xls55mhfJ68oFdA4jhoc-9" style="edgeStyle=orthogonalEdgeStyle;rounded=0;orthogonalLoop=1;jettySize=auto;html=1;exitX=1;exitY=0.5;exitDx=0;exitDy=0;entryX=1;entryY=0.5;entryDx=0;entryDy=0;strokeWidth=3;fillColor=#f8cecc;strokeColor=#b85450;" edge="1" parent="1" source="Xls55mhfJ68oFdA4jhoc-1" target="Xls55mhfJ68oFdA4jhoc-7">
          <mxGeometry relative="1" as="geometry" />
        </mxCell>
        <mxCell id="Xls55mhfJ68oFdA4jhoc-10" style="edgeStyle=orthogonalEdgeStyle;rounded=0;orthogonalLoop=1;jettySize=auto;html=1;exitX=0;exitY=0.5;exitDx=0;exitDy=0;startArrow=classic;startFill=1;endArrow=none;endFill=0;fillColor=#e1d5e7;strokeColor=#9673a6;strokeWidth=3;" edge="1" parent="1" source="Xls55mhfJ68oFdA4jhoc-1" target="Xls55mhfJ68oFdA4jhoc-13">
          <mxGeometry relative="1" as="geometry">
            <mxPoint x="120" y="360" as="targetPoint" />
          </mxGeometry>
        </mxCell>
        <mxCell id="Xls55mhfJ68oFdA4jhoc-1" value="VBAT &amp;gt; 5V&lt;br&gt;buck DCDC" style="rounded=0;whiteSpace=wrap;html=1;" vertex="1" parent="1">
          <mxGeometry x="140" y="510" width="120" height="60" as="geometry" />
        </mxCell>
        <mxCell id="Xls55mhfJ68oFdA4jhoc-24" style="edgeStyle=orthogonalEdgeStyle;rounded=0;orthogonalLoop=1;jettySize=auto;html=1;endArrow=oval;endFill=1;startArrow=classic;startFill=1;" edge="1" parent="1">
          <mxGeometry relative="1" as="geometry">
            <mxPoint x="40" y="720" as="targetPoint" />
            <mxPoint x="440" y="640" as="sourcePoint" />
            <Array as="points">
              <mxPoint x="440" y="640" />
              <mxPoint x="440" y="720" />
            </Array>
          </mxGeometry>
        </mxCell>
        <mxCell id="Xls55mhfJ68oFdA4jhoc-25" value="GND" style="edgeLabel;html=1;align=center;verticalAlign=middle;resizable=0;points=[];" vertex="1" connectable="0" parent="Xls55mhfJ68oFdA4jhoc-24">
          <mxGeometry x="0.8489" y="-1" relative="1" as="geometry">
            <mxPoint x="1" as="offset" />
          </mxGeometry>
        </mxCell>
        <mxCell id="Xls55mhfJ68oFdA4jhoc-7" value="GND referenced Power domain" style="swimlane;horizontal=0;whiteSpace=wrap;html=1;direction=west;startSize=40;fillColor=#f8cecc;strokeColor=#b85450;" vertex="1" parent="1">
          <mxGeometry x="280" y="440" width="800" height="200" as="geometry" />
        </mxCell>
        <mxCell id="Xls55mhfJ68oFdA4jhoc-17" value="SPI" style="edgeStyle=orthogonalEdgeStyle;rounded=0;orthogonalLoop=1;jettySize=auto;html=1;exitX=0.5;exitY=0;exitDx=0;exitDy=0;entryX=0.5;entryY=1;entryDx=0;entryDy=0;" edge="1" parent="Xls55mhfJ68oFdA4jhoc-7" source="Nn-9Tk5UoL4WB16sedau-1" target="Xls55mhfJ68oFdA4jhoc-16">
          <mxGeometry relative="1" as="geometry" />
        </mxCell>
        <mxCell id="Xls55mhfJ68oFdA4jhoc-22" style="edgeStyle=orthogonalEdgeStyle;rounded=0;orthogonalLoop=1;jettySize=auto;html=1;exitX=0.5;exitY=1;exitDx=0;exitDy=0;endArrow=oval;endFill=1;fillColor=#d5e8d4;strokeColor=#82b366;startArrow=classic;startFill=1;" edge="1" parent="Xls55mhfJ68oFdA4jhoc-7" source="Nn-9Tk5UoL4WB16sedau-1">
          <mxGeometry relative="1" as="geometry">
            <mxPoint x="-240" y="240" as="targetPoint" />
            <Array as="points">
              <mxPoint x="480" y="240" />
            </Array>
          </mxGeometry>
        </mxCell>
        <mxCell id="Xls55mhfJ68oFdA4jhoc-23" value="Enable" style="edgeLabel;html=1;align=center;verticalAlign=middle;resizable=0;points=[];" vertex="1" connectable="0" parent="Xls55mhfJ68oFdA4jhoc-22">
          <mxGeometry x="0.8966" y="-3" relative="1" as="geometry">
            <mxPoint y="3" as="offset" />
          </mxGeometry>
        </mxCell>
        <mxCell id="Nn-9Tk5UoL4WB16sedau-1" value="ATTiny MCU" style="rounded=0;whiteSpace=wrap;html=1;" parent="Xls55mhfJ68oFdA4jhoc-7" vertex="1">
          <mxGeometry x="420" y="130" width="120" height="60" as="geometry" />
        </mxCell>
        <mxCell id="Nn-9Tk5UoL4WB16sedau-4" value="Analog" style="edgeStyle=orthogonalEdgeStyle;rounded=0;orthogonalLoop=1;jettySize=auto;html=1;exitX=1;exitY=0.5;exitDx=0;exitDy=0;entryX=0;entryY=0.5;entryDx=0;entryDy=0;" parent="Xls55mhfJ68oFdA4jhoc-7" source="Nn-9Tk5UoL4WB16sedau-3" target="Nn-9Tk5UoL4WB16sedau-1" edge="1">
          <mxGeometry relative="1" as="geometry">
            <mxPoint x="420" y="80" as="targetPoint" />
            <Array as="points">
              <mxPoint x="390" y="160" />
              <mxPoint x="390" y="160" />
            </Array>
          </mxGeometry>
        </mxCell>
        <mxCell id="Nn-9Tk5UoL4WB16sedau-3" value="Current sense amp" style="rounded=0;whiteSpace=wrap;html=1;" parent="Xls55mhfJ68oFdA4jhoc-7" vertex="1">
          <mxGeometry x="220" y="130" width="120" height="60" as="geometry" />
        </mxCell>
        <mxCell id="Xls55mhfJ68oFdA4jhoc-16" value="Level shift / iso" style="rounded=0;whiteSpace=wrap;html=1;" vertex="1" parent="Xls55mhfJ68oFdA4jhoc-7">
          <mxGeometry x="420" y="-30" width="120" height="60" as="geometry" />
        </mxCell>
        <mxCell id="Xls55mhfJ68oFdA4jhoc-27" style="edgeStyle=orthogonalEdgeStyle;rounded=0;orthogonalLoop=1;jettySize=auto;html=1;exitX=0.941;exitY=-0.002;exitDx=0;exitDy=0;exitPerimeter=0;fillColor=#e1d5e7;strokeColor=#9673a6;startArrow=classic;startFill=1;endArrow=none;endFill=0;" edge="1" parent="1" source="Xls55mhfJ68oFdA4jhoc-8">
          <mxGeometry relative="1" as="geometry">
            <mxPoint x="440" y="360" as="targetPoint" />
          </mxGeometry>
        </mxCell>
        <mxCell id="Xls55mhfJ68oFdA4jhoc-8" value="Vbat referenced Power domain" style="swimlane;horizontal=0;whiteSpace=wrap;html=1;direction=west;startSize=40;fillColor=#ffe6cc;strokeColor=#d79b00;" vertex="1" parent="1">
          <mxGeometry x="400" y="120" width="680" height="160" as="geometry" />
        </mxCell>
        <mxCell id="Nn-9Tk5UoL4WB16sedau-5" value="SPI DAC" style="rounded=0;whiteSpace=wrap;html=1;" parent="Xls55mhfJ68oFdA4jhoc-8" vertex="1">
          <mxGeometry x="300" y="50" width="120" height="60" as="geometry" />
        </mxCell>
        <mxCell id="Nn-9Tk5UoL4WB16sedau-6" value="Buffer" style="rounded=0;whiteSpace=wrap;html=1;" parent="Xls55mhfJ68oFdA4jhoc-8" vertex="1">
          <mxGeometry x="500" y="50" width="120" height="60" as="geometry" />
        </mxCell>
        <mxCell id="Nn-9Tk5UoL4WB16sedau-7" value="Analog" style="edgeStyle=orthogonalEdgeStyle;rounded=0;orthogonalLoop=1;jettySize=auto;html=1;exitX=1;exitY=0.5;exitDx=0;exitDy=0;entryX=0;entryY=0.5;entryDx=0;entryDy=0;" parent="Xls55mhfJ68oFdA4jhoc-8" source="Nn-9Tk5UoL4WB16sedau-5" target="Nn-9Tk5UoL4WB16sedau-6" edge="1">
          <mxGeometry relative="1" as="geometry" />
        </mxCell>
        <mxCell id="Xls55mhfJ68oFdA4jhoc-13" value="" style="shape=waypoint;sketch=0;fillStyle=solid;size=6;pointerEvents=1;points=[];fillColor=#e1d5e7;resizable=0;rotatable=0;perimeter=centerPerimeter;snapToPoint=1;strokeWidth=3;strokeColor=#9673a6;" vertex="1" parent="1">
          <mxGeometry x="110" y="350" width="20" height="20" as="geometry" />
        </mxCell>
        <mxCell id="Xls55mhfJ68oFdA4jhoc-18" style="edgeStyle=orthogonalEdgeStyle;rounded=0;orthogonalLoop=1;jettySize=auto;html=1;exitX=0.5;exitY=0;exitDx=0;exitDy=0;entryX=0.5;entryY=1;entryDx=0;entryDy=0;" edge="1" parent="1" source="Xls55mhfJ68oFdA4jhoc-16" target="Nn-9Tk5UoL4WB16sedau-5">
          <mxGeometry relative="1" as="geometry" />
        </mxCell>
        <mxCell id="Xls55mhfJ68oFdA4jhoc-2" value="5V -&amp;gt; 5V&lt;br&gt;iso DCDC" style="rounded=0;whiteSpace=wrap;html=1;" vertex="1" parent="1">
          <mxGeometry x="300" y="410" width="120" height="60" as="geometry" />
        </mxCell>
        <mxCell id="Xls55mhfJ68oFdA4jhoc-19" value="Trace shunt" style="rounded=0;whiteSpace=wrap;html=1;" vertex="1" parent="1">
          <mxGeometry x="520" y="350" width="80" height="20" as="geometry" />
        </mxCell>
        <mxCell id="Xls55mhfJ68oFdA4jhoc-20" value="Output" style="edgeStyle=orthogonalEdgeStyle;rounded=0;orthogonalLoop=1;jettySize=auto;html=1;exitX=1;exitY=0.5;exitDx=0;exitDy=0;fillColor=#dae8fc;strokeColor=#6c8ebf;strokeWidth=3;endArrow=oval;endFill=1;" edge="1" parent="1" source="Nn-9Tk5UoL4WB16sedau-8">
          <mxGeometry relative="1" as="geometry">
            <mxPoint x="1120" y="359.9473684210527" as="targetPoint" />
          </mxGeometry>
        </mxCell>
        <mxCell id="Nn-9Tk5UoL4WB16sedau-8" value="GaNFET array" style="rounded=0;whiteSpace=wrap;html=1;" parent="1" vertex="1">
          <mxGeometry x="900" y="330" width="120" height="60" as="geometry" />
        </mxCell>
        <mxCell id="Nn-9Tk5UoL4WB16sedau-9" style="edgeStyle=orthogonalEdgeStyle;rounded=0;orthogonalLoop=1;jettySize=auto;html=1;exitX=0.5;exitY=1;exitDx=0;exitDy=0;entryX=0.5;entryY=0;entryDx=0;entryDy=0;" parent="1" source="Nn-9Tk5UoL4WB16sedau-6" target="Nn-9Tk5UoL4WB16sedau-8" edge="1">
          <mxGeometry relative="1" as="geometry" />
        </mxCell>
        <mxCell id="Xls55mhfJ68oFdA4jhoc-12" style="edgeStyle=orthogonalEdgeStyle;rounded=0;orthogonalLoop=1;jettySize=auto;html=1;exitX=0.5;exitY=0;exitDx=0;exitDy=0;fillColor=#ffe6cc;strokeColor=#d79b00;strokeWidth=3;entryX=1;entryY=0.5;entryDx=0;entryDy=0;" edge="1" parent="1" source="Xls55mhfJ68oFdA4jhoc-2" target="Xls55mhfJ68oFdA4jhoc-8">
          <mxGeometry relative="1" as="geometry">
            <mxPoint x="360" y="280" as="targetPoint" />
          </mxGeometry>
        </mxCell>
        <mxCell id="Xls55mhfJ68oFdA4jhoc-29" value="VBAT+5V" style="edgeLabel;html=1;align=center;verticalAlign=middle;resizable=0;points=[];" vertex="1" connectable="0" parent="Xls55mhfJ68oFdA4jhoc-12">
          <mxGeometry x="0.7577" y="1" relative="1" as="geometry">
            <mxPoint x="-10" y="-19" as="offset" />
          </mxGeometry>
        </mxCell>
        <mxCell id="Xls55mhfJ68oFdA4jhoc-28" value="" style="shape=waypoint;sketch=0;fillStyle=solid;size=6;pointerEvents=1;points=[];fillColor=#e1d5e7;resizable=0;rotatable=0;perimeter=centerPerimeter;snapToPoint=1;strokeColor=#9673a6;strokeWidth=3;" vertex="1" parent="1">
          <mxGeometry x="430" y="350" width="20" height="20" as="geometry" />
        </mxCell>
      </root>
    </mxGraphModel>
  </diagram>
</mxfile>
